<svg xmlns="http://www.w3.org/2000/svg" xmlns:xlink="http://www.w3.org/1999/xlink" width="300" zoomAndPan="magnify" viewBox="0 0 224.87999 225" height="300" preserveAspectRatio="xMidYMid meet" version="1.0"><defs><g/></defs><path fill="#004aad" d="M 81.308594 15.796875 L 142.746094 15.796875 C 168.8125 15.796875 189.941406 37.214844 189.941406 63.632812 L 189.941406 159.300781 C 189.941406 185.71875 168.8125 207.132812 142.746094 207.132812 L 81.308594 207.132812 C 55.242188 207.132812 34.109375 185.71875 34.109375 159.300781 L 34.109375 63.632812 C 34.109375 37.214844 55.242188 15.796875 81.308594 15.796875 " fill-opacity="1" fill-rule="nonzero"/><g fill="#ffffff" fill-opacity="1"><g transform="translate(82.022271, 149.746198)"><g><path d="M 27.554688 -89.457031 C 28.644531 -94.675781 29.011719 -94.796875 34.230469 -93.585938 C 38.964844 -92.371094 43.695312 -90.914062 48.550781 -90.550781 C 49.765625 -90.429688 50.859375 -90.308594 52.074219 -90.550781 C 52.921875 -90.792969 53.285156 -91.519531 53.285156 -92.371094 C 53.285156 -93.222656 52.679688 -93.585938 51.949219 -93.707031 C 45.519531 -95.164062 39.328125 -97.710938 32.773438 -99.046875 C 24.277344 -100.746094 17.964844 -97.589844 14.203125 -89.820312 C 12.503906 -86.300781 11.410156 -82.539062 10.558594 -78.777344 C 8.617188 -69.429688 7.527344 -59.960938 7.160156 -50.496094 C 7.039062 -47.582031 6.917969 -47.582031 4.25 -46.730469 C 1.457031 -46.003906 -1.214844 -45.152344 -3.761719 -43.574219 C -4.734375 -42.96875 -6.554688 -42.363281 -6.070312 -41.027344 C -5.582031 -39.570312 -3.761719 -40.054688 -2.304688 -40.175781 C -1.820312 -40.175781 -1.214844 -40.421875 -0.726562 -40.542969 C 0.605469 -40.90625 1.941406 -41.390625 3.277344 -41.753906 C 6.917969 -42.726562 6.917969 -42.726562 7.039062 -39.085938 C 7.039062 -32.53125 7.648438 -26.097656 8.617188 -19.664062 C 9.589844 -12.867188 11.046875 -6.070312 14.324219 0 C 19.785156 10.074219 32.289062 13.472656 42.121094 7.527344 C 49.039062 3.398438 55.226562 -1.699219 60.691406 -7.527344 C 62.148438 -9.105469 63.359375 -10.804688 64.574219 -12.382812 C 65.183594 -13.230469 65.304688 -13.957031 64.574219 -14.808594 C 62.753906 -17.234375 61.78125 -17.234375 59.71875 -15.050781 C 59.355469 -14.6875 59.113281 -14.324219 58.871094 -13.957031 C 54.257812 -8.011719 48.550781 -3.277344 42.484375 0.972656 C 40.542969 2.304688 38.597656 3.519531 36.535156 4.613281 C 33.257812 6.3125 31.800781 5.703125 30.101562 2.304688 C 29.011719 0.121094 28.402344 -2.183594 28.039062 -4.613281 C 26.097656 -15.902344 25.855469 -27.3125 25.488281 -38.84375 C 25.367188 -42.121094 25.367188 -42.121094 28.890625 -41.996094 C 35.199219 -41.875 41.390625 -41.511719 47.703125 -41.996094 C 49.886719 -42.121094 52.074219 -42.484375 54.136719 -43.089844 C 55.105469 -43.453125 56.320312 -43.820312 55.957031 -45.152344 C 55.714844 -46.367188 54.621094 -46.609375 53.527344 -46.730469 C 53.164062 -46.730469 52.679688 -46.730469 52.195312 -46.609375 C 43.941406 -45.03125 35.808594 -46.246094 27.554688 -47.097656 C 25.855469 -47.21875 25.246094 -48.066406 25.246094 -49.644531 C 25.367188 -54.378906 25.367188 -59.234375 25.367188 -64.089844 C 25.488281 -72.585938 25.855469 -81.203125 27.554688 -89.457031 Z M 27.554688 -89.457031 "/></g></g></g></svg>