<svg xmlns="http://www.w3.org/2000/svg" xmlns:xlink="http://www.w3.org/1999/xlink" width="300" zoomAndPan="magnify" viewBox="0 0 224.87999 225" height="300" preserveAspectRatio="xMidYMid meet" version="1.0"><defs><g/></defs><path fill="#004aad" d="M 92.734375 14.480469 L 131.621094 14.480469 C 148.117188 14.480469 161.492188 28.035156 161.492188 44.757812 L 161.492188 105.304688 C 161.492188 122.027344 148.117188 135.578125 131.621094 135.578125 L 92.734375 135.578125 C 76.238281 135.578125 62.863281 122.027344 62.863281 105.304688 L 62.863281 44.757812 C 62.863281 28.035156 76.238281 14.480469 92.734375 14.480469 " fill-opacity="1" fill-rule="nonzero"/><g fill="#ffffff" fill-opacity="1"><g transform="translate(93.188237, 99.259173)"><g><path d="M 17.4375 -56.617188 C 18.128906 -59.921875 18.359375 -60 21.664062 -59.230469 C 24.660156 -58.460938 27.65625 -57.539062 30.730469 -57.308594 C 31.496094 -57.234375 32.1875 -57.15625 32.957031 -57.308594 C 33.496094 -57.464844 33.726562 -57.925781 33.726562 -58.460938 C 33.726562 -59 33.339844 -59.230469 32.878906 -59.308594 C 28.808594 -60.230469 24.890625 -61.84375 20.742188 -62.6875 C 15.363281 -63.761719 11.371094 -61.765625 8.988281 -56.847656 C 7.914062 -54.621094 7.222656 -52.238281 6.683594 -49.859375 C 5.453125 -43.941406 4.761719 -37.949219 4.53125 -31.957031 C 4.457031 -30.113281 4.378906 -30.113281 2.6875 -29.578125 C 0.921875 -29.117188 -0.769531 -28.578125 -2.382812 -27.578125 C -2.996094 -27.195312 -4.148438 -26.8125 -3.839844 -25.964844 C -3.535156 -25.042969 -2.382812 -25.351562 -1.460938 -25.429688 C -1.152344 -25.429688 -0.769531 -25.582031 -0.460938 -25.660156 C 0.382812 -25.890625 1.230469 -26.195312 2.074219 -26.425781 C 4.378906 -27.042969 4.378906 -27.042969 4.457031 -24.738281 C 4.457031 -20.589844 4.839844 -16.515625 5.453125 -12.445312 C 6.070312 -8.144531 6.992188 -3.839844 9.066406 0 C 12.523438 6.375 20.433594 8.527344 26.65625 4.761719 C 31.035156 2.152344 34.953125 -1.074219 38.410156 -4.761719 C 39.332031 -5.761719 40.101562 -6.835938 40.871094 -7.835938 C 41.253906 -8.375 41.332031 -8.835938 40.871094 -9.371094 C 39.71875 -10.910156 39.101562 -10.910156 37.796875 -9.527344 C 37.566406 -9.296875 37.414062 -9.066406 37.257812 -8.835938 C 34.339844 -5.070312 30.730469 -2.074219 26.886719 0.613281 C 25.660156 1.460938 24.429688 2.226562 23.125 2.917969 C 21.050781 3.996094 20.128906 3.609375 19.050781 1.460938 C 18.359375 0.078125 17.976562 -1.382812 17.746094 -2.917969 C 16.515625 -10.0625 16.363281 -17.285156 16.132812 -24.582031 C 16.054688 -26.65625 16.054688 -26.65625 18.285156 -26.582031 C 22.277344 -26.503906 26.195312 -26.273438 30.191406 -26.582031 C 31.574219 -26.65625 32.957031 -26.886719 34.261719 -27.273438 C 34.878906 -27.503906 35.644531 -27.734375 35.414062 -28.578125 C 35.261719 -29.347656 34.570312 -29.5 33.878906 -29.578125 C 33.648438 -29.578125 33.339844 -29.578125 33.035156 -29.5 C 27.808594 -28.5 22.664062 -29.269531 17.4375 -29.808594 C 16.363281 -29.882812 15.980469 -30.421875 15.980469 -31.421875 C 16.054688 -34.417969 16.054688 -37.488281 16.054688 -40.5625 C 16.132812 -45.941406 16.363281 -51.394531 17.4375 -56.617188 Z M 17.4375 -56.617188 "/></g></g></g><g fill="#004aad" fill-opacity="1"><g transform="translate(67.491585, 184.762089)"><g><path d="M 8.71875 -28.308594 C 9.066406 -29.960938 9.179688 -30 10.832031 -29.617188 C 12.332031 -29.230469 13.828125 -28.769531 15.363281 -28.65625 C 15.75 -28.617188 16.09375 -28.578125 16.480469 -28.65625 C 16.746094 -28.730469 16.863281 -28.960938 16.863281 -29.230469 C 16.863281 -29.5 16.671875 -29.617188 16.441406 -29.652344 C 14.40625 -30.113281 12.445312 -30.921875 10.371094 -31.34375 C 7.683594 -31.882812 5.683594 -30.882812 4.496094 -28.425781 C 3.957031 -27.3125 3.609375 -26.121094 3.34375 -24.929688 C 2.726562 -21.972656 2.382812 -18.976562 2.265625 -15.980469 C 2.226562 -15.058594 2.191406 -15.058594 1.34375 -14.789062 C 0.460938 -14.558594 -0.382812 -14.289062 -1.191406 -13.789062 C -1.5 -13.597656 -2.074219 -13.40625 -1.921875 -12.984375 C -1.765625 -12.523438 -1.191406 -12.675781 -0.730469 -12.714844 C -0.578125 -12.714844 -0.382812 -12.792969 -0.230469 -12.828125 C 0.191406 -12.945312 0.613281 -13.097656 1.039062 -13.214844 C 2.191406 -13.519531 2.191406 -13.519531 2.226562 -12.367188 C 2.226562 -10.292969 2.421875 -8.257812 2.726562 -6.222656 C 3.035156 -4.070312 3.496094 -1.921875 4.53125 0 C 6.261719 3.1875 10.21875 4.265625 13.328125 2.382812 C 15.519531 1.074219 17.476562 -0.539062 19.207031 -2.382812 C 19.667969 -2.882812 20.050781 -3.417969 20.433594 -3.917969 C 20.628906 -4.1875 20.664062 -4.417969 20.433594 -4.6875 C 19.859375 -5.453125 19.550781 -5.453125 18.898438 -4.761719 C 18.785156 -4.648438 18.707031 -4.53125 18.628906 -4.417969 C 17.171875 -2.535156 15.363281 -1.039062 13.445312 0.308594 C 12.828125 0.730469 12.214844 1.113281 11.5625 1.460938 C 10.523438 1.996094 10.0625 1.804688 9.527344 0.730469 C 9.179688 0.0390625 8.988281 -0.691406 8.875 -1.460938 C 8.257812 -5.03125 8.183594 -8.644531 8.066406 -12.292969 C 8.027344 -13.328125 8.027344 -13.328125 9.140625 -13.289062 C 11.140625 -13.253906 13.097656 -13.136719 15.097656 -13.289062 C 15.789062 -13.328125 16.480469 -13.445312 17.132812 -13.636719 C 17.4375 -13.75 17.824219 -13.867188 17.707031 -14.289062 C 17.632812 -14.671875 17.285156 -14.75 16.941406 -14.789062 C 16.824219 -14.789062 16.671875 -14.789062 16.515625 -14.75 C 13.90625 -14.25 11.332031 -14.636719 8.71875 -14.902344 C 8.183594 -14.941406 7.988281 -15.210938 7.988281 -15.710938 C 8.027344 -17.207031 8.027344 -18.746094 8.027344 -20.28125 C 8.066406 -22.96875 8.183594 -25.699219 8.71875 -28.308594 Z M 8.71875 -28.308594 "/></g></g></g><g fill="#004aad" fill-opacity="1"><g transform="translate(86.73466, 184.762089)"><g><path d="M 6.144531 -19.015625 C 6.339844 -19.359375 6.53125 -19.707031 6.835938 -19.972656 C 7.183594 -20.320312 7.527344 -20.320312 7.875 -20.011719 C 8.335938 -19.589844 8.679688 -19.050781 8.949219 -18.515625 C 9.21875 -17.824219 9.488281 -17.171875 9.757812 -16.480469 C 9.871094 -16.171875 10.027344 -15.980469 10.371094 -16.054688 C 10.679688 -16.09375 10.949219 -16.132812 11.214844 -16.210938 C 11.601562 -16.285156 11.792969 -16.515625 11.714844 -16.902344 C 11.601562 -18.207031 11.253906 -19.476562 10.371094 -20.511719 C 9.371094 -21.664062 8.105469 -22.164062 6.605469 -21.894531 C 5.222656 -21.625 4.109375 -20.933594 3.113281 -19.972656 C 1.652344 -18.515625 0.691406 -16.710938 0.230469 -14.710938 C -0.269531 -12.753906 -0.308594 -10.753906 -0.152344 -8.757812 C 0 -6.492188 0.460938 -4.265625 1.535156 -2.191406 C 2.035156 -1.269531 2.613281 -0.382812 3.417969 0.308594 C 5.914062 2.574219 9.679688 2.035156 11.410156 -0.84375 C 11.753906 -1.382812 12.023438 -1.921875 12.292969 -2.496094 C 13.058594 -4.109375 13.828125 -5.761719 14.597656 -7.414062 C 15.132812 -8.605469 15.671875 -9.832031 16.210938 -11.0625 C 16.441406 -11.523438 16.363281 -11.832031 15.863281 -11.984375 C 15.710938 -12.0625 15.558594 -12.136719 15.363281 -12.214844 C 15.058594 -12.367188 14.828125 -12.332031 14.671875 -11.984375 C 14.597656 -11.832031 14.519531 -11.675781 14.441406 -11.484375 C 13.136719 -8.644531 11.714844 -5.839844 10.257812 -3.035156 C 9.757812 -2.035156 9.140625 -1.074219 8.375 -0.269531 C 7.835938 0.347656 7.296875 0.308594 6.875 -0.382812 C 6.375 -1.152344 6.03125 -1.996094 5.722656 -2.84375 C 4.761719 -5.609375 4.457031 -8.488281 4.378906 -10.410156 C 4.378906 -14.671875 4.839844 -16.824219 6.144531 -19.015625 Z M 6.144531 -19.015625 "/></g></g></g><g fill="#004aad" fill-opacity="1"><g transform="translate(101.176584, 184.762089)"><g><path d="M 4.761719 -11.871094 C 4.992188 -15.058594 5.261719 -18.207031 5.453125 -21.394531 C 5.648438 -24.199219 5.839844 -27.042969 5.953125 -29.847656 C 6.03125 -31.304688 5.992188 -31.34375 4.496094 -31.304688 C 2.265625 -31.304688 2.226562 -31.304688 1.804688 -29.117188 C 0.921875 -24.851562 0.308594 -20.550781 0 -16.210938 C -0.308594 -12.367188 -0.347656 -8.527344 0.078125 -4.726562 C 0.230469 -3.496094 0.421875 -2.265625 0.730469 -1.074219 C 0.921875 -0.347656 1.421875 0 2.152344 0.0390625 C 2.457031 0.0390625 2.804688 0.0390625 3.113281 0 C 3.6875 -0.0390625 4.035156 -0.308594 4.070312 -0.960938 C 4.226562 -2.152344 4.457031 -3.304688 4.726562 -4.457031 C 5.648438 -8.566406 7.414062 -12.253906 9.679688 -15.75 C 9.988281 -16.171875 10.292969 -16.785156 10.910156 -16.671875 C 11.601562 -16.480469 11.371094 -15.789062 11.410156 -15.25 C 11.445312 -12.023438 11.484375 -8.835938 11.5625 -5.609375 C 11.5625 -4.378906 11.640625 -3.148438 11.792969 -1.921875 C 11.984375 -0.84375 12.214844 0.230469 12.714844 1.191406 C 13.023438 1.765625 13.40625 2.226562 14.058594 2.382812 C 15.441406 2.652344 16.710938 2.457031 17.707031 1.304688 C 18.4375 0.421875 18.976562 -0.539062 19.476562 -1.574219 C 20.820312 -4.457031 21.855469 -7.492188 22.96875 -10.449219 C 23.316406 -11.371094 23.277344 -11.371094 22.355469 -11.640625 C 21.703125 -11.792969 21.511719 -11.523438 21.320312 -11.023438 C 20.398438 -8.835938 19.476562 -6.683594 18.554688 -4.53125 C 17.976562 -3.113281 17.402344 -1.730469 16.59375 -0.421875 C 16.285156 0.117188 16.019531 0.652344 15.441406 1 C 15.097656 0.539062 15.019531 0.0390625 14.902344 -0.460938 C 14.636719 -1.960938 14.480469 -3.496094 14.480469 -4.992188 C 14.480469 -7.605469 14.480469 -10.21875 14.480469 -12.828125 C 14.480469 -14.136719 14.367188 -15.441406 13.945312 -16.671875 C 13.445312 -18.285156 12.023438 -18.976562 10.410156 -18.476562 C 9.679688 -18.246094 9.066406 -17.785156 8.527344 -17.246094 C 7.722656 -16.441406 7.066406 -15.519531 6.492188 -14.558594 C 5.953125 -13.675781 5.453125 -12.753906 4.917969 -11.871094 C 4.878906 -11.871094 4.800781 -11.871094 4.761719 -11.871094 Z M 4.761719 -11.871094 "/></g></g></g><g fill="#004aad" fill-opacity="1"><g transform="translate(121.610361, 184.762089)"><g><path d="M 21.585938 -11.214844 C 20.933594 -11.371094 20.859375 -10.910156 20.703125 -10.488281 C 19.898438 -8.105469 19.015625 -5.722656 17.824219 -3.457031 C 17.4375 -2.726562 17.054688 -1.996094 16.515625 -1.34375 C 16.210938 -0.960938 15.902344 -0.460938 15.328125 -0.578125 C 14.671875 -0.652344 14.710938 -1.304688 14.519531 -1.765625 C 14.480469 -1.882812 14.480469 -2.035156 14.441406 -2.191406 C 13.828125 -4.957031 14.097656 -7.722656 14.367188 -10.488281 C 14.519531 -11.984375 14.558594 -13.445312 14.40625 -14.941406 C 14.328125 -15.980469 14.136719 -17.015625 13.597656 -17.976562 C 12.867188 -19.28125 11.601562 -19.859375 10.101562 -19.511719 C 8.71875 -19.207031 7.722656 -18.359375 6.875 -17.285156 C 5.761719 -15.902344 4.957031 -14.367188 4.226562 -12.792969 C 4.070312 -12.484375 3.996094 -12.136719 3.574219 -11.792969 C 3.574219 -12.253906 3.574219 -12.597656 3.574219 -12.945312 C 3.574219 -14.867188 3.574219 -16.785156 3.574219 -18.707031 C 3.574219 -18.976562 3.574219 -19.28125 3.535156 -19.589844 C 3.496094 -20.050781 3.265625 -20.28125 2.765625 -20.28125 C 2.113281 -20.242188 1.460938 -20.242188 0.808594 -20.242188 C 0.308594 -20.242188 0 -20.011719 -0.0390625 -19.511719 C -0.078125 -19.28125 -0.152344 -19.089844 -0.191406 -18.859375 C -1 -14.058594 -1.230469 -9.21875 -1 -4.339844 C -0.960938 -3.035156 -0.730469 -1.691406 -0.539062 -0.382812 C -0.382812 0.730469 -0.230469 0.808594 0.882812 0.730469 C 1.269531 0.691406 1.613281 0.691406 1.996094 0.652344 C 2.957031 0.652344 2.957031 0.613281 3.148438 -0.347656 C 3.839844 -4.035156 4.726562 -7.644531 5.953125 -11.179688 C 6.722656 -13.367188 7.875 -15.402344 9.335938 -17.207031 C 9.601562 -17.515625 9.871094 -17.976562 10.371094 -17.863281 C 10.949219 -17.746094 10.984375 -17.171875 11.0625 -16.746094 C 11.371094 -15.363281 11.484375 -13.980469 11.410156 -12.5625 C 11.292969 -9.949219 10.984375 -7.335938 11.140625 -4.726562 C 11.214844 -3.457031 11.410156 -2.191406 11.871094 -1 C 12.136719 -0.347656 12.523438 0.269531 13.214844 0.613281 C 14.519531 1.191406 16.480469 0.882812 17.515625 -0.0390625 C 17.9375 -0.460938 18.324219 -0.882812 18.628906 -1.382812 C 20.398438 -4.070312 21.472656 -7.066406 22.277344 -10.179688 C 22.472656 -10.910156 22.277344 -11.023438 21.585938 -11.214844 Z M 21.585938 -11.214844 "/></g></g></g><g fill="#004aad" fill-opacity="1"><g transform="translate(142.044137, 184.762089)"><g><path d="M 9.410156 -10.949219 C 9.679688 -10.910156 9.910156 -10.832031 10.140625 -10.792969 C 12.367188 -10.257812 14.558594 -10.679688 16.710938 -11.214844 C 17.171875 -11.332031 17.285156 -11.5625 17.171875 -12.023438 C 17.09375 -12.445312 16.785156 -12.484375 16.441406 -12.40625 C 16.019531 -12.292969 15.59375 -12.253906 15.171875 -12.136719 C 12.484375 -11.445312 10.332031 -12.332031 8.449219 -14.210938 C 8.144531 -14.519531 7.835938 -14.828125 7.527344 -15.132812 C 7.144531 -15.558594 6.722656 -15.941406 6.261719 -16.285156 C 5.109375 -17.132812 4.226562 -17.132812 3.113281 -16.25 C 2.421875 -15.75 1.921875 -15.097656 1.460938 -14.40625 C -0.0390625 -12.101562 -0.808594 -9.566406 -1.039062 -6.835938 C -1.191406 -5.339844 -0.960938 -3.878906 -0.269531 -2.535156 C 0.382812 -1.269531 1.34375 -0.382812 2.726562 -0.078125 C 5.453125 0.578125 7.527344 -0.5 8.605469 -3.074219 C 9.566406 -5.453125 9.910156 -7.875 9.257812 -10.410156 C 9.21875 -10.523438 9.257812 -10.679688 9.21875 -10.871094 C 9.371094 -10.910156 9.371094 -10.949219 9.410156 -10.949219 Z M 5.492188 -13.445312 C 7.527344 -10.0625 7.953125 -6.53125 6.222656 -2.917969 C 5.953125 -2.421875 5.683594 -1.960938 5.261719 -1.574219 C 4.761719 -1.113281 4.300781 -1.152344 3.878906 -1.730469 C 3.609375 -2.074219 3.496094 -2.457031 3.34375 -2.882812 C 2.882812 -4.53125 2.882812 -6.183594 3.113281 -7.835938 C 3.34375 -9.371094 3.609375 -10.910156 4.109375 -12.367188 C 4.300781 -12.945312 4.53125 -13.519531 4.917969 -13.980469 C 5.222656 -13.867188 5.378906 -13.636719 5.492188 -13.445312 Z M 5.492188 -13.445312 "/></g></g></g></svg>