<svg xmlns="http://www.w3.org/2000/svg" xmlns:xlink="http://www.w3.org/1999/xlink" width="300" zoomAndPan="magnify" viewBox="0 0 224.87999 225" height="300" preserveAspectRatio="xMidYMid meet" version="1.0"><defs><g/></defs><path fill="#004aad" d="M 82.742188 15.796875 L 141.308594 15.796875 C 167.375 15.796875 188.507812 37.214844 188.507812 63.632812 L 188.507812 159.300781 C 188.507812 185.71875 167.375 207.132812 141.308594 207.132812 L 82.742188 207.132812 C 56.675781 207.132812 35.546875 185.71875 35.546875 159.300781 L 35.546875 63.632812 C 35.546875 37.214844 56.675781 15.796875 82.742188 15.796875 " fill-opacity="1" fill-rule="nonzero"/><g fill="#ffffff" fill-opacity="1"><g transform="translate(83.4772, 149.746198)"><g><path d="M 22.578125 -85.332031 C 20.269531 -77.320312 18.328125 -69.1875 16.992188 -60.933594 C 14.324219 -45.152344 13.59375 -29.375 15.902344 -13.472656 C 16.628906 -8.496094 17.722656 -3.519531 20.027344 1.09375 C 21.605469 4.371094 24.035156 6.917969 27.675781 7.890625 C 34.835938 10.074219 41.753906 8.496094 46.367188 2.183594 C 48.675781 -0.851562 50.617188 -4.371094 52.316406 -7.769531 C 57.777344 -18.691406 60.933594 -30.464844 64.089844 -42.121094 C 64.816406 -44.789062 64.089844 -45.398438 61.417969 -45.519531 C 60.328125 -45.519531 59.71875 -45.152344 59.355469 -44.183594 C 59.113281 -43.089844 58.75 -41.996094 58.503906 -40.785156 C 55.59375 -30.464844 52.4375 -20.148438 47.460938 -10.558594 C 45.640625 -7.039062 43.695312 -3.519531 41.148438 -0.363281 C 39.933594 1.09375 38.476562 2.550781 36.777344 3.398438 C 34.835938 4.492188 34.109375 4.25 33.378906 2.183594 C 32.53125 -0.242188 32.289062 -2.914062 31.921875 -5.582031 C 30.953125 -13.957031 31.558594 -22.457031 32.167969 -30.953125 C 33.378906 -48.675781 36.171875 -66.394531 37.144531 -84.238281 C 37.386719 -86.910156 37.507812 -87.03125 39.933594 -86.542969 C 47.945312 -84.722656 55.957031 -86.421875 63.96875 -86.667969 C 66.394531 -86.789062 66.636719 -87.394531 66.515625 -90.066406 C 66.273438 -92.25 66.152344 -92.371094 63.605469 -92.492188 C 63.117188 -92.492188 62.511719 -92.492188 61.90625 -92.492188 C 52.800781 -91.886719 43.820312 -92.613281 35.078125 -95.40625 C 33.136719 -96.011719 31.074219 -96.375 29.132812 -96.742188 C 15.902344 -99.046875 3.277344 -96.984375 -8.496094 -90.792969 C -13.957031 -87.878906 -13.957031 -87.394531 -10.316406 -82.539062 C -8.738281 -80.476562 -8.617188 -80.355469 -6.433594 -81.566406 C 0.242188 -84.96875 7.402344 -86.542969 14.6875 -87.636719 C 17.359375 -88 20.269531 -88.609375 23.0625 -88.121094 C 23.425781 -87.03125 22.820312 -86.179688 22.578125 -85.332031 Z M 22.578125 -85.332031 "/></g></g></g></svg>