<svg id="Layer_1" data-name="Layer 1" xmlns="http://www.w3.org/2000/svg" viewBox="0 0 400 300" width="406" height="306" class="illustration styles_illustrationTablet__1DWOa"><path d="M202.45,81.56S144.94,93.34,142,119.18s31.55,30.58,61.74,20.39,19-41.85,6.58-43c-9.91-1-17.64,14.45-33.1,20.62a3,3,0,0,1-2.92-5.19L210.4,84.75l-4.07-3.94Z" fill="#7FB7F8"></path><path d="M202.45,81.56S144.94,93.34,142,119.18s31.55,30.58,61.74,20.39,19-41.85,6.58-43c-9.91-1-17.64,14.45-33.1,20.62a3,3,0,0,1-2.92-5.19L210.4,84.75l-4.07-3.94Z" opacity="0.09"></path><rect x="204.11" y="69.91" width="16.84" height="10.36" transform="translate(10.79 175.63) rotate(-45.95)" fill="#ffd200"></rect><rect x="204.11" y="69.91" width="16.84" height="10.36" transform="translate(10.79 175.63) rotate(-45.95)" opacity="0.09"></rect><path d="M222.56,94.09s1.4-14.45,20-14.67,54.87,4.64,54.57,30.42-2.8,64.09-36,100.88l-57.37-14.87S230.75,126.07,222.56,94.09Z" fill="#ffd200"></path><path d="M231.09,91.87s5-5.66,27.41.85,28.38,17.68,22.7,51.48-24.05,59.57-24.05,59.57l-22.81-4.24Z" opacity="0.09"></path><path d="M231.31,93.78s43.32,2.85,49.31,22.17S244.05,203,244.05,203H188.28s10.19-40.8,2.4-59.08S194.05,85.56,231.31,93.78Z" fill="#7FB7F8"></path><polygon points="228.57 69.69 231.31 93.78 216.57 101.43 221.3 76.59 228.57 69.69" fill="#f4a28c"></polygon><path d="M220.4,80.44a8.78,8.78,0,0,0,4.44-2.38s-.39,4.42-5.45,8.58Z" fill="#ce8172" opacity="0.31"></path><path d="M217.89,67.25s-2,7.13-1.63,12.18a3.71,3.71,0,0,0,4,3.45c2.54-.2,5.91-1.22,7.43-4.91L231,72a6.65,6.65,0,0,0-1.6-7.51C225.85,60.79,218.86,62.84,217.89,67.25Z" fill="#f4a28c"></path><path d="M216.88,71.81l-2.54,2.43a1.18,1.18,0,0,0,.39,2l2.69,1Z" fill="#f4a28c"></path><path d="M220.24,59.31a1.89,1.89,0,0,0-3,1.1c-.65,2.78-.87,6.82,2.86,8,5.87,1.9,3.39,11.16,10.18,11L234.14,71s1.57-6.1-4.12-8.7C225.06,60.08,224.28,62.21,220.24,59.31Z" fill="#24285b"></path><path d="M221.39,92.77c4,.24,10.78.76,16.51,1.73,0,0-23.54,36.57-28,77.34,0,0-10.2-51.2,0-77.92l5-.83A30,30,0,0,1,221.39,92.77Z" fill="#24285b"></path><path d="M256.49,109.84s-11.65,12.23-8.65,26.22,6.8,36-4,39.38-32.78-6.4-32.78-6.4l-5.42,9.4,2.22,13.39s24-4,16.28,11.19h19.9s19.09-33,22.14-39.47S256.49,109.84,256.49,109.84Z" opacity="0.09"></path><rect x="201.42" y="140.08" width="33.13" height="44.68" transform="translate(-13.77 20.34) rotate(-5.18)" fill="#ffd200"></rect><path d="M255.42,112.42a11.39,11.39,0,0,1,18.14-5.69,37.67,37.67,0,0,1,14,25.75c2.69,23.77,7.75,59.45-6.32,63.94s-49.65-22.18-49.65-22.18L237.9,165S260.53,178.44,268,176C274.15,174.08,249.44,133.93,255.42,112.42Z" fill="#7FB7F8"></path><path d="M255.42,112.42a11.39,11.39,0,0,1,18.14-5.69,37.67,37.67,0,0,1,14,25.75c2.69,23.77,7.75,59.45-6.32,63.94s-49.65-22.18-49.65-22.18L237.9,165S260.53,178.44,268,176C274.15,174.08,249.44,133.93,255.42,112.42Z" fill="#fff" opacity="0.46"></path><path d="M237.9,165s-13.74-7.2-15.79-3,10.65,10.51,10.65,10.51Z" fill="#f4a28c"></path><path d="M214.9,93.09l2.52-5.29L223,91.09l9.09-3.89L233.39,94S219.54,100.29,214.9,93.09Z" fill="#24285b"></path><polygon points="219.39 96.54 222.56 94.09 224.84 97.69 222.11 102.29 218.46 101.43 219.39 96.54" fill="#fff"></polygon><path d="M218.46,101.43s-9.69,19-12.81,35.48l.26,4.17,11-1,1.53-4.53s2.81-22.07,3.65-33.26Z" fill="#fff"></path><polygon points="149.91 196.33 314.71 226.45 249.14 276.19 62.36 232.48 149.91 196.33" fill="#7FB7F8"></polygon><polygon points="62.36 220.22 62.36 232.48 314.71 226.45 314.71 214.19 62.36 220.22" fill="#7FB7F8"></polygon><polygon points="149.91 184.07 314.71 214.19 249.14 263.92 62.36 220.22 149.91 184.07" fill="#24285b"></polygon><polygon points="132.46 218.65 159.65 202.13 211.74 215.35 185.59 233.33 132.46 218.65" fill="#fff"></polygon><path d="M224.48,74.9s.56-2.8,2.63-2.19,1.27,4.64-1.66,4.49Z" fill="#f4a28c"></path><polygon points="240.25 210.75 206.53 233.59 238.18 242.66 269.83 218.6 240.25 210.75" fill="#ffd200"></polygon><polygon points="132.46 218.65 118.77 180.92 176.4 193.73 185.59 233.33 132.46 218.65" fill="#7FB7F8"></polygon><polygon points="245.07 218.46 211.34 241.3 243 250.37 274.65 226.31 245.07 218.46" fill="#fff"></polygon><path d="M202.45,81.56s-.32-8.28,6-9.72S212.84,81.1,202.45,81.56Z" fill="#f4a28c"></path><ellipse cx="149.83" cy="206.41" rx="4.07" ry="5.29" transform="translate(-66.23 70.87) rotate(-21.92)" fill="#fff"></ellipse><rect x="206.83" y="18.12" width="33.06" height="23.19" fill="#e6e6e6"></rect><polygon points="227.58 37.89 223.5 49.29 219.87 37.89 227.58 37.89" fill="#e6e6e6"></polygon><circle cx="214.24" cy="29.55" r="2.4" fill="#c1c1c1"></circle><circle cx="223.1" cy="29.55" r="2.4" fill="#c1c1c1"></circle><circle cx="232.21" cy="29.55" r="2.4" fill="#c1c1c1"></circle><circle cx="111.77" cy="60.13" r="20.69" fill="#e6e6e6"></circle><circle cx="111.77" cy="60.13" r="14.63" fill="#fff"></circle><path d="M111.77,62.55a1,1,0,0,1-.66-.24,1,1,0,0,1-.34-.76V51.72a1,1,0,0,1,2,0V60.4l6.92-1a1,1,0,0,1,.29,2l-8.07,1.16Z" fill="#c1c1c1"></path><polygon points="249.14 263.92 249.14 276.19 314.71 226.45 314.71 214.19 249.14 263.92" opacity="0.09"></polygon></svg>